{"title":"18+ Richard Peter Johnson 2016 Movies HDRip XviD New +Sample ☻rD","uid":15729081,"size":739513966,"categoryP":"video","categoryS":"movies","magnet":"?xt=urn:btih:01960c334e43b80e14b1da6016d700e73bf2da50&amp;dn=18%2B+Richard+Peter+Johnson+2016+Movies+HDRip+XviD+New+%2BSample+%E2%98%BBrD&amp;tr=udp%3A%2F%2Ftracker.leechers-paradise.org%3A6969&amp;tr=udp%3A%2F%2Fzer0day.ch%3A1337&amp;tr=udp%3A%2F%2Fopen.demonii.com%3A1337&amp;tr=udp%3A%2F%2Ftracker.coppersurfer.tk%3A6969&amp;tr=udp%3A%2F%2Fexodus.desync.com%3A6969","seeders":0,"leechers":2,"uploader":"basicssom","files":2,"time":1472762147,"description":"----------------------------------------------------------------\r\n18+ Richard Peter Johnson 2016 English Movies HDRip XviD AAC New Source with Sample ☻rDX☻\r\n\r\nSCREEN SHOTS &amp; POSTER:\r\n  \nhttp://postimage.co.nr/2016/9/purchase/index.htm  \nhttp://postimage.co.nr/2016/9/purchase/1.html  \nhttp://postimage.co.nr/2016/9/purchase/2.html  \nhttp://postimage.co.nr/2016/9/purchase/3.html  \nhttp://postimage.co.nr/2016/9/purchase/4.html  \nhttp://postimage.co.nr/2016/9/purchase/5.html  \nhttp://postimage.co.nr/2016/9/purchase/6.html  \nhttp://postimage.co.nr/2016/9/purchase/7.html  \nhttp://postimage.co.nr/2016/9/purchase/8.html  \nhttp://postimage.co.nr/2016/9/purchase/9.html  \nhttp://postimage.co.nr/2016/9/purchase/10.html\r\n\r\nFormat                                   : Matroska\r\nFormat version                           : Version 4 / Version 2\r\nFile size                                : 698 MiB\r\nDuration                                 : 1 h 29 min\r\nOverall bit rate mode                    : Constant\r\nOverall bit rate                         : 1 088 kb/s\r\nMovie name                               : 18+ Richard Peter Johnson 2016 English Movies HDRip XviD AAC New Source ☻rDX☻\r\n\r\nVideo\r\nID                                       : 2\r\nFormat                                   : AVC\r\nFormat/Info                              : Advanced Video Codec\r\nFormat profile                           :   \r\nFormat settings, CABAC                   : Yes\r\nFormat settings, ReFrames                : 2 frames\r\nFormat settings, GOP                     : M=1, N=12\r\nCodec ID                                 : V_MPEG4/ISO/AVC\r\nDuration                                 : 1 h 29 min\r\nBit rate mode                            : Constant\r\nBit rate                                 : 897 kb/s\r\nWidth                                    : 720 pixels\r\nHeight                                   : 400 pixels\r\nDisplay aspect ratio                     : 16:9\r\nFrame rate mode                          : Constant\r\nFrame rate                               : 23.976 FPS\r\nColor space                              : YUV\r\nChroma subsampling                       : 4:2:0\r\nBit depth                                : 8 bits\r\nScan type                                : Progressive\r\nBits/(Pixel*Frame)                       : 0.130\r\nStream size                              : 561 MiB (80%)\r\nTitle                                    : ☻rDX☻\r\nDefault                                  : Yes\r\nForced                                   : No\r\n\r\nAudio\r\nID                                       : 1\r\nFormat                                   : AC-3\r\nFormat/Info                              : Audio Coding 3\r\nMode extension                           : CM (complete main)\r\nFormat settings, Endianness              : Big\r\nCodec ID                                 : A_AC3\r\nDuration                                 : 1 h 29 min\r\nBit rate mode                            : Constant\r\nBit rate                                 : 192 kb/s\r\nChannel(s)                               : 2 channels\r\nChannel positions                        : Front: L R\r\nSampling rate                            : 48.0 kHz\r\nFrame rate                               : 31.250 FPS (1536 spf)\r\nCompression mode                         : Lossy\r\nStream size                              : 123 MiB (18%)\r\nTitle                                    : ☻rDX☻\r\nDefault                                  : Yes\r\nForced                                   : No\r\n\r\nIMDB \nhttp://www.imdb.com/title/tt2847520/","torrent":{"xt":"urn:btih:01960c334e43b80e14b1da6016d700e73bf2da50","amp;dn":"18%2B+Richard+Peter+Johnson+2016+Movies+HDRip+XviD+New+%2BSample+%E2%98%BBrD","amp;tr":["udp%3A%2F%2Ftracker.leechers-paradise.org%3A6969","udp%3A%2F%2Fzer0day.ch%3A1337","udp%3A%2F%2Fopen.demonii.com%3A1337","udp%3A%2F%2Ftracker.coppersurfer.tk%3A6969","udp%3A%2F%2Fexodus.desync.com%3A6969"],"infoHash":"01960c334e43b80e14b1da6016d700e73bf2da50","infoHashBuffer":{"type":"Buffer","data":[1,150,12,51,78,67,184,14,20,177,218,96,22,215,0,231,59,242,218,80]},"announce":[],"urlList":[]}}